<svg width="84" height="149" viewBox="0 0 84 149" fill="none" xmlns="http://www.w3.org/2000/svg">
<path d="M29.7299 38.36C28.5414 41.7599 24.8524 43.5667 21.5317 42.3753C14.8904 39.9922 11.4012 32.4789 13.7778 25.6791C14.1451 24.6282 14.6115 23.6824 15.16 22.6966C17.8109 25.8044 21.3852 28.4088 25.853 30.0119C29.1735 31.2034 30.9183 34.96 29.7299 38.36ZM83.0042 138.663C83.5661 137.056 83.5021 135.294 82.7874 133.646L48.0497 58.8474L25.5047 69.8893L60.2425 144.688C60.6006 145.462 61.1051 146.154 61.727 146.726C62.3492 147.299 63.0761 147.739 63.8668 148.023C64.6575 148.307 65.4964 148.428 66.3351 148.38C67.1742 148.332 67.9964 148.115 68.7554 147.743L79.7406 142.362C81.3803 141.559 82.4641 140.209 83.0042 138.663ZM41.8051 42.6928C45.3917 32.4312 40.1966 21.2448 30.1741 17.6485C22.2649 14.8106 20.6053 6.145 22.4202 0.952399C13.0666 3.99652 4.96516 12.0119 1.70266 21.3463C-3.07228 35.0078 3.86746 49.9508 17.2105 54.7384C27.2329 58.3347 38.2186 52.9544 41.8051 42.6928Z" fill="url(#paint0_linear_108_1269)"/>
<defs>
<linearGradient id="paint0_linear_108_1269" x1="148.785" y1="57.7899" x2="-55.8981" y2="111.004" gradientUnits="userSpaceOnUse">
<stop offset="0.427083" stop-color="#7854D3"/>
<stop offset="0.661458" stop-color="#5850DA"/>
</linearGradient>
</defs>
</svg>
