<svg width="18" height="18" viewBox="0 0 18 18" fill="none" xmlns="http://www.w3.org/2000/svg">
<path d="M16.5442 1.45585C16.2523 1.16397 15.8564 1 15.4436 1C15.0308 1 14.6349 1.16397 14.3431 1.45585L6.2279 10.4936C7.1151 10.6742 8.00077 11.5426 8.12147 12.3871L16.5442 3.65694C16.836 3.36505 17 2.96918 17 2.55639C17 2.14361 16.836 1.74773 16.5442 1.45585ZM4.45964 12.0796C3.31104 12.0796 2.38386 13.0214 2.38386 14.1885C2.38386 15.1091 1.58122 15.5942 1 15.5942C1.63657 16.4518 2.7229 17 3.76771 17C5.29687 17 6.53542 15.7418 6.53542 14.1885C6.53542 13.0214 5.60824 12.0796 4.45964 12.0796Z" stroke="white" stroke-width="0.7" stroke-linecap="round" stroke-linejoin="round"/>
</svg>
