<svg width="21" height="18" viewBox="0 0 21 18" fill="none" xmlns="http://www.w3.org/2000/svg">
<path d="M2.13333 17.6625C1.74444 17.8181 1.375 17.7839 1.025 17.5599C0.675 17.3366 0.5 17.0111 0.5 16.5834V12.2375C0.5 11.9653 0.577778 11.7222 0.733333 11.5084C0.888889 11.2945 1.10278 11.1584 1.375 11.1L9.83333 9.00002L1.375 6.90002C1.10278 6.84169 0.888889 6.70558 0.733333 6.49169C0.577778 6.2778 0.5 6.03475 0.5 5.76252V1.41669C0.5 0.988913 0.675 0.663024 1.025 0.439024C1.375 0.215802 1.74444 0.181968 2.13333 0.337524L20.1 7.92086C20.5861 8.13475 20.8292 8.49447 20.8292 9.00002C20.8292 9.50558 20.5861 9.8653 20.1 10.0792L2.13333 17.6625Z" fill="url(#paint0_linear_369_389)"/>
<defs>
<linearGradient id="paint0_linear_369_389" x1="1" y1="3.02467e-05" x2="21" y2="18" gradientUnits="userSpaceOnUse">
<stop stop-color="#5650DA"/>
<stop offset="1" stop-color="#7854D3"/>
</linearGradient>
</defs>
</svg>
